<svg width="100" height="40" viewBox="0 0 100 40" fill="none" xmlns="http://www.w3.org/2000/svg">
<g clip-path="url(#clip0_118_256)">
<path d="M36.5 13.5V1.69995H34.6L25.1 13.4V15.1H34.6V20.4H36.5V15.1H39V13.5H36.5ZM34.6 13.5H27.5L34.6 4.39995V13.5Z" fill="#8B8B8B"/>
<path d="M53.9 4.00002C54.6179 4.00002 55.2 3.41799 55.2 2.70002C55.2 1.98205 54.6179 1.40002 53.9 1.40002C53.182 1.40002 52.6 1.98205 52.6 2.70002C52.6 3.41799 53.182 4.00002 53.9 4.00002Z" fill="#8B8B8B"/>
<path d="M50.7999 7.09998V8.79998H52.8999V18.8H50.7999V20.4H56.8999V18.8H54.7999V7.09998H50.7999Z" fill="#8B8B8B"/>
<path d="M72.6999 18.8V13.8C72.7999 9.80001 71.8 6.80001 67.3 6.90001C65.8 6.90001 64.4 7.50001 63.2 9.00001V7.10001H59.2V8.80001H61.4V18.8H59.2V20.4H65.4V18.8H63.2V12.4C63.6 10.7 64.3 9.20001 66 8.70001C66.8 8.40001 67.7 8.40001 68.5 8.70001C70.2 9.30001 70.8 10.7 70.9 12.5V18.8H68.6999V20.4H74.9V18.8H72.6999Z" fill="#8B8B8B"/>
<path d="M47.1999 1.7H49.2999V0H47.0999C45.0999 0 43.4999 1.6 43.4999 3.6V7.1H41.2999V8.8H43.4999V18.8H41.2999V20.4H47.4999V18.8H45.2999V8.8H47.4999V7.1H45.3999V3.5C45.2999 2.5 46.0999 1.7 47.1999 1.7Z" fill="#8B8B8B"/>
<path d="M53.7 26.5H52.8V24.9H51.8V26.5H51.1V27.4H51.8V30.3H52.8V27.4H53.7V26.5Z" fill="#8B8B8B"/>
<path d="M57.1 26.5H56.2V24.9H55.1V26.5H54.4V27.4H55.1V30.3H56.2V27.4H57.1V26.5Z" fill="#8B8B8B"/>
<path d="M61.9999 34H61.0999V32.4H59.9999V34H59.2999V34.8H59.9999V37.8H61.0999V34.8H61.9999V34Z" fill="#8B8B8B"/>
<path d="M43.9999 34H43.0999V32.4H41.9999V34H41.2999V34.8H41.9999V37.8H43.0999V34.8H43.9999V34Z" fill="#8B8B8B"/>
<path d="M46.7 33.8C45.5 33.8 44.6 34.7 44.6 35.8C44.6 36.9 45.5 37.8 46.7 37.8C47.9 37.8 48.8 36.9 48.8 35.8C48.8 34.7 47.8 33.8 46.7 33.8ZM46.6 37C46 37 45.5 36.5001 45.5 35.9001C45.5 35.3001 46 34.8 46.6 34.8C47.2 34.8 47.7 35.3001 47.7 35.9001C47.7 36.5001 47.2 37 46.6 37Z" fill="#8B8B8B"/>
<path d="M46.7 33.8C45.5 33.8 44.6 34.7 44.6 35.8C44.6 36.9 45.5 37.8 46.7 37.8C47.9 37.8 48.8 36.9 48.8 35.8C48.8 34.7 47.8 33.8 46.7 33.8ZM46.6 37C46 37 45.5 36.5001 45.5 35.9001C45.5 35.3001 46 34.8 46.6 34.8C47.2 34.8 47.7 35.3001 47.7 35.9001C47.7 36.5001 47.2 37 46.6 37Z" fill="#8B8B8B"/>
<path d="M50.5 28.8V28.6C50.5 28.2 50.4 27.7 50.2 27.4C49.9 26.8 49.3 26.4 48.5 26.4C47.3 26.4 46.5 27.3 46.5 28.4C46.5 29.5 47.4 30.4 48.5 30.4C49.3 30.4 49.8 30.2 50.3 29.6L49.6 29.1C49.4 29.4 48.9 29.5 48.5 29.5C48 29.5 47.6 29.2 47.5 28.7L50.5 28.8ZM48.5 27.2C49 27.2 49.3 27.5 49.4 28H47.5C47.6 27.5 48 27.2 48.5 27.2Z" fill="#8B8B8B"/>
<path d="M61.7 28.8V28.6C61.7 28.2 61.6 27.7 61.4 27.4C61.1 26.8 60.5 26.4 59.7 26.4C58.5 26.4 57.7 27.3 57.7 28.4C57.7 29.5 58.6 30.4 59.7 30.4C60.5 30.4 61 30.2 61.5 29.6L60.7999 29.1C60.5999 29.4 60.1 29.5 59.7 29.5C59.2 29.5 58.8 29.2 58.7 28.7L61.7 28.8ZM59.7 27.2C60.2 27.2 60.4999 27.5 60.5999 28H58.7C58.8 27.5 59.2 27.2 59.7 27.2Z" fill="#8B8B8B"/>
<path d="M58.7 36.2001V36C58.7 35.6 58.6 35.1 58.4 34.8C58.1 34.2 57.5 33.8 56.7 33.8C55.5 33.8 54.7 34.7 54.7 35.8C54.7 36.9 55.6 37.8 56.7 37.8C57.5 37.8 58 37.6 58.5 37L57.7999 36.5C57.5999 36.9 57 37 56.7 37C56.2 37 55.8 36.7001 55.7 36.2001H58.7ZM56.7 34.6C57.2 34.6 57.4999 34.9001 57.5999 35.4001H55.7C55.8 35.0001 56.2 34.6 56.7 34.6Z" fill="#8B8B8B"/>
<path d="M71.2999 36.2001V36C71.2999 35.6 71.1999 35.1 70.9999 34.8C70.6999 34.2 70.0999 33.8 69.2999 33.8C68.0999 33.8 67.2999 34.7 67.2999 35.8C67.2999 36.9 68.1999 37.8 69.2999 37.8C70.0999 37.8 70.5999 37.6 71.0999 37L70.3999 36.5C70.1999 36.8 69.6999 36.9001 69.2999 36.9001C68.7999 36.9001 68.3999 36.6 68.2999 36.1L71.2999 36.2001ZM69.2999 34.6C69.7999 34.6 70.0999 34.9001 70.1999 35.4001H68.2999C68.4999 35.0001 68.8999 34.6 69.2999 34.6Z" fill="#8B8B8B"/>
<path d="M73.3999 34.3V34H72.2999V37.8H73.3999V35.4C73.4999 35 73.8999 34.8 74.6999 34.9L74.7999 34C74.2999 33.8 73.7999 33.9 73.3999 34.3Z" fill="#8B8B8B"/>
<path d="M63.7999 26.8V26.4H62.7V30.2H63.7999V27.8C63.8999 27.4 64.2999 27.2 65.0999 27.3L65.1999 26.4C64.5999 26.3 64.1999 26.5 63.7999 26.8Z" fill="#8B8B8B"/>
<path d="M66.3 35.4C66.3 33.8 64.7 33.4 63.7 34.4V32H62.7V37.8H63.7V35.4C63.7 35.3 63.8 35.1 63.9 35C64.4 34.5 65.1 34.6 65.3 35.4V37.8H66.3V35.4Z" fill="#8B8B8B"/>
<path d="M52.6 34V34.3C52.3 34 51.9 33.9 51.4 33.9C50.3 33.9 49.5 34.8 49.5 35.9C49.5 37 50.4 37.9 51.4 37.9C51.8 37.9 52.2 37.7 52.6 37.5V38.6C52.4 39.4 50.9 39.5 50.8 38.6H49.7C49.9 39.5 50.4 40.1 51.7 40.1C52.9 40 53.6 39.6 53.6 38.6V34H52.6ZM51.7 36.9C51.1 36.9 50.6 36.4 50.6 35.8C50.6 35.2 51.1 34.7 51.7 34.7C52.3 34.7 52.8 35.2 52.8 35.8C52.7 36.5 52.3 36.9 51.7 36.9Z" fill="#8B8B8B"/>
<path d="M44.3999 27.2C44.9999 27.2 45.4999 26.7 45.4999 26.1C45.4999 25.2 44.7999 24.5 43.8999 24.5H42.3999H42.2999H41.2999V27.2V30.3H42.3999H43.7999C44.7999 30.3 45.5999 29.5 45.5999 28.5C45.6999 27.8 45.0999 27.2 44.3999 27.2ZM42.3999 25.4H43.5999C43.8999 25.4 44.2999 25.6 44.2999 25.9C44.3999 26.4 44.0999 26.8 43.5999 26.8H42.3999V25.4ZM44.4999 28.6C44.4999 29 44.0999 29.4 43.6999 29.4H42.3999V27.8H43.6999C44.1999 27.8 44.4999 28.1 44.4999 28.6Z" fill="#8B8B8B"/>
</g>
<defs>
<clipPath id="clip0_118_256">
<rect width="100" height="40" fill="white"/>
</clipPath>
</defs>
</svg>
