<svg width="100" height="40" viewBox="0 0 100 40" fill="none" xmlns="http://www.w3.org/2000/svg">
<path d="M44.5 9.40002H41.4L37.8 18.9H40.6L41.1 17.5H44.8L45.3 18.9H48L44.5 9.40002ZM41.6 15.5L42.9 11.9L44.1 15.5H41.6Z" fill="#8A8A8A"/>
<path d="M51.4 13.4L55.4 18.9H57.8V9.40002H55.4V14.6L51.5 9.40002H49V18.9H51.4V13.4Z" fill="#8A8A8A"/>
<path d="M36.7 14.7C36.4 14.3 35.9 14 35.4 13.9C35.9 13.8 36.3 13.6 36.6 13.2C36.9 12.8 37.1 12.3 37.1 11.8C37.1 11.4 37 11 36.8 10.6C36.6 10.2 36.3 9.90002 35.9 9.70002C35.5 9.50002 35 9.40002 34.4 9.40002H29V18.9H34.6C35.2 18.9 35.7 18.8 36.1 18.5C36.5 18.3 36.8 17.9 37 17.6C37.2 17.2 37.3 16.8 37.3 16.3C37.2 15.7 37.1 15.1 36.7 14.7ZM31.3 11.3H33.7C33.9 11.3 34.1 11.4 34.3 11.5C34.5 11.7 34.5 11.9 34.5 12.1C34.5 12.4 34.4 12.6 34.3 12.7C34.2 12.9 34 13 33.7 13H31.3V11.3ZM34.5 16.6C34.3 16.8 34.1 16.9 33.8 16.9H31.3V14.9H33.8C34.1 14.9 34.3 15 34.5 15.2C34.7 15.4 34.7 15.6 34.7 15.9C34.7 16.2 34.7 16.5 34.5 16.6Z" fill="#8A8A8A"/>
<path d="M75.2 9.40002H72.1L68.5 18.9H71.3L71.8 17.5H75.5L76 18.9H78.8L75.2 9.40002ZM72.4 15.5L73.7 11.9L74.9 15.5H72.4Z" fill="#8A8A8A"/>
<path d="M68.4 9.40002H65.3L62.4 13.3V9.40002H60V18.9H62.4V16.1L63.1 15.3L65.6 18.9H68.6L64.7 13.8L68.4 9.40002Z" fill="#8A8A8A"/>
<path d="M32.1 23.2001C32.5 22.9001 33 22.8 33.5 22.8C33.9 22.8 34.4001 22.9001 34.7001 23.2001C35.1001 23.5001 35.3 23.8001 35.5 24.2001L37.6 23.2001C37.2 22.5001 36.7 22 36 21.5C35.3 21.1 34.5001 20.8 33.4001 20.8C32.4001 20.8 31.6 21 30.8 21.4C30 21.8 29.4 22.4 29 23.1C28.6 23.8001 28.3 24.7001 28.3 25.7001C28.3 26.7001 28.5 27.5 29 28.3C29.4 29 30.1 29.6 30.8 30C31.6 30.4 32.5001 30.6 33.4001 30.6C34.4001 30.6 35.3 30.4 36 29.9C36.7 29.5 37.2 28.9001 37.6 28.2001L35.5 27.2001C35.3 27.6001 35.1001 27.9001 34.7001 28.2001C34.3001 28.5001 33.9 28.6 33.5 28.6C33 28.6 32.5 28.5001 32.1 28.2001C31.7 27.9001 31.4001 27.6 31.2001 27.1C31.0001 26.6 30.9 26.1 30.9 25.6C30.9 25.0001 31.0001 24.5001 31.2001 24.1C31.4001 23.8001 31.7 23.4001 32.1 23.2001Z" fill="#8A8A8A"/>
<path d="M45 27.0001C45.5 26.8001 46 26.5001 46.3 26.0001C46.7 25.5001 46.9001 24.9001 46.9001 24.1001C46.9001 23.5001 46.8 23.0001 46.5 22.5001C46.2 22.0001 45.9001 21.6001 45.4001 21.4001C44.9001 21.1001 44.3 21.0001 43.6 21.0001H38.8V30.5001H41.2001V27.3001H42.5L44.1 30.5001H47L45 27.0001ZM44.1 25.0001C43.9 25.2001 43.6 25.3001 43.3 25.3001H41.4001V22.9001H43.3C43.6 22.9001 43.9 23.0001 44.1 23.2001C44.3 23.4001 44.4001 23.7001 44.4001 24.1001C44.4001 24.5001 44.3 24.8001 44.1 25.0001Z" fill="#8A8A8A"/>
<path d="M85.5 21.0001H82.4L78.8 30.5001H81.6L82.1 29.1001H85.8L86.3 30.5001H89.1L85.5 21.0001ZM82.7 27.2001L84 23.6001L85.2 27.2001H82.7Z" fill="#8A8A8A"/>
<path d="M79.4 21.0001H71.6V22.9001H74.3V30.5001H76.7V22.9001H79.4V21.0001Z" fill="#8A8A8A"/>
<path d="M96.9 25.8001C96.5 25.4001 96.1 25.1001 95.6 24.9001C95.1 24.7001 94.5 24.5001 93.7 24.4001C93.1 24.2001 92.7 24.1001 92.4 24.0001C92.1 23.9001 92 23.7001 92 23.5001C92 23.3001 92.1 23.1001 92.3 22.9001C92.5 22.8001 92.7 22.7001 93.1 22.7001C93.6 22.7001 94.1 22.8001 94.6 22.9001C95.1 23.1001 95.5 23.3001 95.9 23.6001L97.2 21.9001C96.7 21.5001 96.1 21.2001 95.5 21.0001C94.8 20.8001 94.1 20.7001 93.4 20.7001C92.6 20.7001 91.9 20.8001 91.4 21.1001C90.8 21.4001 90.4 21.7001 90.1 22.2001C89.8 22.7001 89.7 23.2001 89.7 23.7001C89.7 24.4001 89.9 25.0001 90.3 25.4001C90.7 25.8001 91.1 26.1001 91.6 26.3001C92.1 26.5001 92.7 26.6001 93.5 26.8001C94.1 26.9001 94.5 27.0001 94.7 27.2001C95 27.3001 95.1 27.5001 95.1 27.7001C95.1 27.9001 95 28.2001 94.7 28.3001C94.5 28.5001 94.1 28.5001 93.7 28.5001C93.1 28.5001 92.5 28.4001 92 28.2001C91.5 28.0001 91 27.7001 90.7 27.3001L89.4 29.1001C90.5 30.0001 91.9 30.5001 93.6 30.5001C94.9 30.5001 95.8 30.2001 96.5 29.6001C97.2 29.0001 97.5 28.3001 97.5 27.3001C97.5 26.8001 97.3 26.2001 96.9 25.8001Z" fill="#8A8A8A"/>
<path d="M48.5001 30.5001H55.5001V28.5001H51.0001V26.5001H55.4001V24.6001H51.0001V22.9001H55.5001V21.0001H48.5001V30.5001Z" fill="#8A8A8A"/>
<path d="M65.6 23.2001C65.2 22.5001 64.6 21.9001 63.8 21.6001C63 21.2001 62.1 21.0001 61.1 21.0001H57.1V30.5001H61.1C62.1 30.5001 63 30.3001 63.7 29.9001C64.5 29.5001 65.1 29.0001 65.5 28.2001C65.9 27.5001 66.2 26.6001 66.2 25.7001C66.3 24.7001 66.1 23.9001 65.6 23.2001ZM63.5 27.1001C63.3 27.5001 63 27.9001 62.6 28.1001C62.2 28.4001 61.7 28.5001 61.2 28.5001H59.7V22.9001H61.3C62.1 22.9001 62.8 23.2001 63.2 23.7001C63.7 24.2001 63.9 24.9001 63.9 25.7001C63.8 26.2001 63.7 26.7001 63.5 27.1001Z" fill="#8A8A8A"/>
<path d="M70.2 21.0001H67.8V30.5001H70.2V21.0001Z" fill="#8A8A8A"/>
<path d="M23.6 24.8C23.6 26.4 23 27.8 21.9 28.8C20.9 29.8 19.5 30.5 17.9 30.5H2.5V9.40002H18C19.6 9.40002 21 10 22 11.1C23 12.1 23.7 13.5 23.7 15.1C23.7 17.2 22.5 19 20.8 20C22.5 20.9 23.6 22.7 23.6 24.8Z" fill="#B8B8B8"/>
<path d="M17 23.8L15.5 22.3C14.9 22.9 14 23.3 13.1 23.3C11.2 23.3 9.7 21.8 9.7 19.9C9.7 18 11.2 16.5 13.1 16.5C14 16.5 14.9 16.9 15.5 17.5L18.5 14.5C17.1 13.1 15.2 12.3 13.1 12.3C8.9 12.3 5.5 15.7 5.5 19.9C5.5 24.1 8.9 27.5 13.1 27.5C15.2 27.5 17.1 26.6 18.5 25.3L17 23.8Z" fill="white"/>
</svg>
