<svg width="100" height="40" viewBox="0 0 100 40" fill="none" xmlns="http://www.w3.org/2000/svg">
<path fill-rule="evenodd" clip-rule="evenodd" d="M74.2001 39.8H77.1001V32.3L81.4001 39.8H84.4001V27.8H81.5001V35.3L77.2001 27.8H74.2001V39.8Z" fill="#8B8B8B"/>
<path fill-rule="evenodd" clip-rule="evenodd" d="M92.7 27.8H88.2L84.6 39.9001H88L88.6 37.5H92.3L93 39.9001H96.5L92.7 27.8ZM89.4 34.9001L90.5 30.9L91.6 34.9001H89.4Z" fill="#8B8B8B"/>
<path fill-rule="evenodd" clip-rule="evenodd" d="M66.6 39.8H73.6V37.4001H69.8V27.8H66.6V39.8Z" fill="#8B8B8B"/>
<path fill-rule="evenodd" clip-rule="evenodd" d="M65.8 30.4V27.7H59.4C58.6 27.7 57.9 28.4 57.9 29.2V38.2999C57.9 39.0999 58.6 39.7999 59.4 39.7999H65.8V37.0999H60.9V35.0999H65.4V32.4H60.9V30.2999H65.8V30.4Z" fill="#8B8B8B"/>
<path fill-rule="evenodd" clip-rule="evenodd" d="M48.1 27.8H44.9V39.8H48.1V27.8Z" fill="#8B8B8B"/>
<path fill-rule="evenodd" clip-rule="evenodd" d="M49.3 27.8V30.5H51.6V39.8H55V30.5H57.3V27.8H49.3Z" fill="#8B8B8B"/>
<path fill-rule="evenodd" clip-rule="evenodd" d="M27.9 40C31.3 40 33.5 37.5 33.5 33.8C33.5 30.1 31.3 27.6 27.9 27.6C24.6 27.6 22.3 30.1 22.3 33.8C22.3 37.5 24.6 40 27.9 40ZM27.9 30C29.5 30 30.4 31.4 30.4 33.8C30.4 36.2 29.4 37.6 27.9 37.6C26.3 37.6 25.4 36.2 25.4 33.8C25.4 31.4 26.3 30 27.9 30Z" fill="#8B8B8B"/>
<path fill-rule="evenodd" clip-rule="evenodd" d="M17.3001 32.9C16.9001 32.9 16.1001 32.9 16.1001 32.9V30.2C16.1001 30.2 16.9001 30.2 17.3001 30.2C18.1001 30.2 19.0001 30.4 19.0001 31.5C19.1001 32.7 18.2001 32.9 17.3001 32.9ZM13.2001 39.7999H16.1001V35.2C18.6001 35.1 22.1001 35.4 22.1001 31.4C22.1001 28.9 20.4001 27.7 18.3001 27.7C16.6001 27.7 13.2001 27.7 13.2001 27.7V39.7999Z" fill="#8B8B8B"/>
<path fill-rule="evenodd" clip-rule="evenodd" d="M8.2 37.6C8.9 37.6 9.8 37.4 9.8 36.5C9.7 34.7 4.1 35.8 4 31.5C3.9 29 6 27.6 8.2 27.5C10 27.4 11.3 28 12.5 29.5L10.6 31C9.8 30.2 9.3 29.8 8.2 29.8C7.7 29.8 7 30.2 7 30.8C7.1 32.7 12.7 31.3 12.9 35.7C13 38.3 11.1 39.8 8.8 39.9C6.7 40 4.8 39.4 3.5 37.5L5.5 36C6.2 37.2 6.8 37.7 8.2 37.6Z" fill="#8B8B8B"/>
<path fill-rule="evenodd" clip-rule="evenodd" d="M41.4 34.2C42.5 33.6 43.2 32.7 43.2 31.2C43.2 28.7 41.4 27.7 39.4 27.7H34V39.7999H37V35.0999H38.3L40.5 39.7999H44L41.4 34.2ZM37.1 30H38.5C39.3 30 40.2 30.1999 40.2 31.2999C40.2 32.4999 39.2 32.5999 38.3 32.5999C37.9 32.5999 37.5 32.5999 37.1 32.5999V30ZM37.1 27H39.2L41.1 24.7H39.3L38.2 25.9L37.1 24.7H35.3L37.1 27Z" fill="#8B8B8B"/>
<path fill-rule="evenodd" clip-rule="evenodd" d="M36.9 20.1C37.8 20.1 39.1 19.8 39 18.6C38.9 16.2 31.3 17.7 31.1 11.9C31 8.5 33.8 6.6 36.8 6.5C39.2 6.4 41 7.2 42.6 9.1L40.1 11.1C39 10 38.4 9.5 36.8 9.5C36.1 9.5 35.1 10 35.1 10.8C35.2 13.3 42.8 11.5 43.1 17.5C43.2 21 40.6 23.1 37.5 23.2C34.6 23.3 32.1 22.6 30.4 20L33.1 17.9C34.3 19.5 35.1 20.2 36.9 20.1Z" fill="#8B8B8B"/>
<path fill-rule="evenodd" clip-rule="evenodd" d="M53.7 23.1H58.3L53.7 12.4L57.8 6.90002H52.9L48.6 12.8V6.90002H44.1V23.2H48.6V19.3L50.8 16.3L53.7 23.1Z" fill="#8B8B8B"/>
<path fill-rule="evenodd" clip-rule="evenodd" d="M30 10.4V6.90002H21.4C20.3 6.90002 19.4 7.80002 19.4 8.90002V21.1C19.4 22.2 20.3 23.1 21.4 23.1H30V19.5H23.4V16.8H29.5V13.2H23.4V10.4H30Z" fill="#8B8B8B"/>
<path fill-rule="evenodd" clip-rule="evenodd" d="M11.1 6.49998C15.3 6.49998 17.8 8.69998 17.9 12.4H14.1C13.8 10.7 12.8 9.79998 11.2 9.79998C9.00002 9.79998 7.80002 11.7 7.80002 15C7.80002 18.2 9.10002 20 11.2 20C13 20 14 18.9 14.3 16.6H18.2C18.1 20.8 15.5 23.3 11.1 23.3C6.40002 23.3 3.40002 20.1 3.40002 14.9C3.40002 9.79997 6.40002 6.49998 11.1 6.49998ZM7.30002 2.59998H9.70002L11.2 4.19998L12.7 2.59998H15.2L12.7 5.79998H9.70002L7.30002 2.59998Z" fill="#8B8B8B"/>
<path fill-rule="evenodd" clip-rule="evenodd" d="M69.3001 6.9H63.2001L58.3 23.2H62.9001L63.8 20H68.8001L69.7 23.2H74.4001L69.3001 6.9ZM64.7 16.4L66.2 11L67.7 16.4H64.7ZM64.4001 5.7H66.6L69.8001 2.5H66.4001L64.4001 5.7Z" fill="#8B8B8B"/>
<path fill-rule="evenodd" clip-rule="evenodd" d="M86.8 6C85.1 6 83.8 4.6 83.8 3C83.8 1.3 85.2 0 86.8 0C88.5 0 89.8 1.4 89.8 3C89.8 4.7 88.4 6 86.8 6ZM76.9 9.8V17.3H91.8V18.3H76.9V20.3C76.9 21.9 78.2 23.2 79.8 23.2H93.7C95.3 23.2 96.6 21.9 96.6 20.3V13.1H81.7V12H96.6V9.8C96.6 8.2 95.3 6.9 93.7 6.9H79.8C78.2 6.9 76.9 8.2 76.9 9.8Z" fill="#B9B9B9"/>
</svg>
