<svg width="100" height="40" viewBox="0 0 100 40" fill="none" xmlns="http://www.w3.org/2000/svg">
<path d="M50.2 17.3C55 17.3 58.8 13.4 58.8 8.7C58.8 3.9 55 0 50.2 0C45.4 0 41.6 3.9 41.6 8.6C41.6 13.4 45.4 17.3 50.2 17.3Z" fill="#BABABA"/>
<path d="M56.6 15.6C55 17.4 52.1 19.2 48.3 19.2C45.4 19.2 42.9 18.1 41.3 16.8C31.9 17.8 24.9 19.2 24.9 19.2V23H74.8V15.1C74.9 15.1 66.3 15.1 56.6 15.6Z" fill="#BABABA"/>
<path d="M36 30.7001C36 34.0001 38.7 34.5001 40.6 34.9001C41.7 35.1001 42.5 35.3 42.5 35.8C42.5 36.3 41.5 36.5 40.5 36.5C39.1 36.5 37.5 36.2001 36.3 35.7001L36.1 35.6V39.3H36.2C38 39.7 39.5 39.9001 41.4 39.9001C43.3 39.9001 47.6 39.5001 47.6 35.4001C47.6 32.1001 44.9 31.6001 42.9 31.2001C41.9 31.0001 41 30.8 41 30.4C41 29.8 41.9 29.7001 42.9 29.7001C44.1 29.7001 45.4 29.9 46.5 30.3L46.7 30.4V26.7001H46.6C45.2 26.4001 43.8 26.3 42.5 26.3C38.2 26.4 36 27.9001 36 30.7001ZM48 33.2001C48 37.6 50.5 40 55.1 40C59.7 40 62.2 37.6 62.2 33.2001C62.2 28.9001 59.6 26.4 55.1 26.4C50.6 26.4 48 28.9001 48 33.2001ZM53.3 33.2001C53.3 31.0001 53.9 29.8 55 29.8C56.6 29.8 56.8 31.7001 56.8 33.2001C56.8 34.8001 56.6 36.6 55 36.6C53.9 36.6 53.3 35.5001 53.3 33.2001ZM63.1 26.6H63V39.7001H70.4C73.1 39.7001 75.7 39.2 75.7 36C75.7 34.8 74.8 33.5 73.3 33C74.8 32.5 75.5 31.5 75.5 29.9C75.5 27.8 73.9 26.6 71.1 26.6H63.1ZM68.9 34.5C70 34.5 70.5 34.8 70.5 35.6C70.5 36.7 69.2 36.8 68.9 36.8C68.9 36.8 68.1 36.8 67.8 36.8C67.8 36.5 67.8 34.8 67.8 34.5C68.1 34.5 68.9 34.5 68.9 34.5ZM68.9 29.4C69.9 29.4 70.4 29.8 70.4 30.5C70.4 31.4 69.5 31.6 68.8 31.6C68.8 31.6 68 31.6 67.8 31.6C67.8 31.3 67.8 29.7 67.8 29.5C68.1 29.4 68.9 29.4 68.9 29.4ZM28.3 24.3L26.8 25.7001L26.9 25.8C26.9 25.8 27.8 26.5 29.1 26.9C26.1 27.8 24.4 30.1 24.4 33.1C24.4 37.4 27.3 40 32 40C33.5 40 35 39.6 35.5 39.5H35.6V35.8L35.4 35.9001C34.5 36.2001 33.7 36.4001 32.9 36.4001C30.9 36.4001 29.6 35.2001 29.6 33.2001C29.6 31.3001 30.9 30.1 33 30.1C33.8 30.1 34.6 30.3 35.3 30.6L35.5 30.7001V27L35.1 26.9C34.5 26.8 33.9 26.7 33.4 26.6C34.4 26.1 35.1 25.5001 35.4 25.2001L35.5 25.1L34.9 24.7001L34.8 24.8C34.8 24.8 33.7 26 31.7 25.9C29.6 25.9 28.4 24.4 28.4 24.4L28.3 24.3Z" fill="#8C8C8C"/>
</svg>
