<svg width="100" height="40" viewBox="0 0 100 40" fill="none" xmlns="http://www.w3.org/2000/svg">
<path d="M34.2001 15.2999L31.7001 14.2999C31.7001 14.2999 31.7001 20.9999 31.7001 21.0999C31.7001 22.2999 30.7 23.2999 29.5 23.2999C28.3 23.2999 27.3 22.2999 27.3 21.0999C27.3 20.9999 27.3 15.2999 27.3 15.2999L24.8 14.2999V20.8999C24.8 23.4999 26.9 25.5999 29.5 25.5999C32.1 25.5999 34.2001 23.4999 34.2001 20.8999V15.2999Z" fill="#8C8C8C"/>
<path d="M76.6 25.3999H79.1V18.8999C79.1 17.6999 80.1 16.6999 81.3 16.6999C82.5 16.6999 83.5 17.6999 83.5 18.8999C83.5 18.9999 83.5 25.3999 83.5 25.3999H86V18.9999C86 16.3999 83.9 14.2999 81.3 14.2999C78.7 14.2999 76.6 16.3999 76.6 18.9999V25.3999Z" fill="#8C8C8C"/>
<path d="M45 16C44 15 42.5 14.3 41 14.4C39.4 14.4 38 15 36.9 16C35.9 17 35.2 18.5 35.2 20C35.2 21.6 35.8 23 36.9 24C37.9 25 39.4 25.7 41 25.7C42.2 25.7 43.3 25.4 44.2 24.7L46.7 25.5V20C46.7 18.4 46 17 45 16ZM43.2999 22.4C42.6999 23 41.9 23.4 41 23.4C40.1 23.4 39.3 23 38.7 22.4C38.1 21.8 37.7999 20.9 37.7999 20C37.7999 19.1 38.1 18.3 38.7 17.6C39.3 17 40.1 16.6 41 16.6C41.9 16.6 42.6999 17 43.2999 17.6C43.9 18.2 44.2 19.1 44.2 20C44.2 20.9 43.7999 21.8 43.2999 22.4Z" fill="#8C8C8C"/>
<path d="M73.7 16C72.7 15 71.2 14.3 69.7 14.4C68.1 14.4 66.7 15 65.6 16C64.6 17 63.9 18.5 63.9 20C63.9 21.6 64.5 23 65.6 24C66.6 25 68.1 25.7 69.7 25.7C70.9 25.7 72 25.4 72.9 24.7L75.4 25.5V20C75.4 18.4 74.8 17 73.7 16ZM72 22.4C71.4 23 70.6 23.4 69.7 23.4C68.8 23.4 68 23 67.4 22.4C66.8 21.8 66.5 20.9 66.5 20C66.5 19.1 66.8 18.3 67.4 17.6C68 17 68.8 16.6 69.7 16.6C70.6 16.6 71.4 17 72 17.6C72.6 18.2 72.9 19.1 72.9 20C72.9 20.9 72.6 21.8 72 22.4Z" fill="#8C8C8C"/>
<path d="M21.9 16C20.9 15 19.4 14.3 17.9 14.4C16.3 14.4 14.9 15 13.8 16C12.8 17 12.1 18.5 12.1 20C12.1 21.6 12.7 23 13.8 24C14.8 25 16.3 25.7 17.9 25.7C19.1 25.7 20.2 25.4 21.1 24.7V28.8L23.6 29.8V20C23.5 18.4 22.9 17 21.9 16ZM20.1 22.4C19.5 23 18.7 23.4 17.8 23.4C16.9 23.4 16.1 23 15.5 22.4C14.9 21.8 14.6 20.9 14.6 20C14.6 19.1 14.9 18.3 15.5 17.6C16.1 17 16.9 16.6 17.8 16.6C18.7 16.6 19.5 17 20.1 17.6C20.7 18.2 21 19.1 21 20C21 20.9 20.7 21.8 20.1 22.4Z" fill="#8C8C8C"/>
<path d="M53.2 24C54.2 25 55.7 25.6 57.2 25.6C58.8 25.6 60.2 25 61.3 24C62.3 23 63 21.5 63 20C63 18.4 62.4 17 61.3 16C60.3 15 58.8 14.3 57.2 14.3C56 14.3 54.9 14.6 54 15.3V11.2L51.5 10.2V20C51.5 21.6 52.1 23 53.2 24ZM54.9 17.6C55.5 17 56.3 16.6 57.2 16.6C58.1 16.6 58.9 17 59.5 17.6C60.1 18.2 60.4 19.1 60.4 20C60.4 20.9 60.1 21.7 59.5 22.4C58.9 23 58.1 23.4 57.2 23.4C56.3 23.4 55.5 23 54.9 22.4C54.3 21.7 54 20.9 54 20C54 19.1 54.3 18.2 54.9 17.6Z" fill="#8C8C8C"/>
<path d="M94.7 25.3999L90.5 19.8999L94.7 14.2999H97.5L93.2 19.8999L97.5 25.3999H94.7Z" fill="#8C8C8C"/>
<path d="M90.2 25.4V11.1L87.7 10.2V25.4H90.2Z" fill="#8C8C8C"/>
<path d="M5 12.5H11L12.6 10.2H3.8C3.1 10.2 2.5 10.8 2.5 11.5V16.5H5V12.5ZM5 19.1H2.5V24.1C2.5 24.5 2.6 24.8 2.9 25C3.1 25.2 3.4 25.4 3.8 25.4H10.5L12.1 23.1H5V19.1Z" fill="#8C8C8C"/>
<path d="M5 16.3999L2.5 19.0999H7.6L10.2 16.3999H5Z" fill="#BABABA"/>
</svg>
