<svg width="100" height="40" viewBox="0 0 100 40" fill="none" xmlns="http://www.w3.org/2000/svg">
<path d="M7.3999 26.1C7.3999 26 7.3999 25.9 7.4999 25.8C8.3999 24.3 9.2999 22.9 10.5999 21.8C11.0999 21.4 11.6999 21 12.1999 20.7C12.4999 20.5 12.4999 20.5 12.1999 20.3C11.7999 20.1 11.3999 19.8 11.0999 19.5C10.6999 19.2 10.5999 18.7 10.8999 18.2C11.1999 17.8 11.6999 17.7 12.0999 18C12.2999 18.1 12.3999 18.2 12.5999 18.3C13.4999 19 14.4999 19.4 15.5999 19.4C16.3999 19.4 17.0999 19.2 17.7999 18.8C17.9999 18.7 18.0999 18.6 18.2999 18.5C18.6999 18.3 19.1999 18.4 19.4999 18.8C19.7999 19.2 19.6999 19.7 19.2999 20C18.8999 20.3 18.4999 20.5 18.0999 20.7C17.7999 20.8 17.7999 20.9 17.9999 21.1C18.6999 21.9 19.3999 22.7 19.6999 23.7C19.7999 23.9 19.7999 24.2 19.6999 24.5C19.6999 24.8 19.3999 25 18.9999 25C18.5999 25 18.2999 24.8 18.1999 24.5C17.8999 23.8 17.4999 23.1 16.8999 22.5C16.3999 22 15.8999 21.6 15.0999 21.5C14.3999 21.4 13.7999 21.7 13.1999 22C11.9999 22.6 11.0999 23.5 10.3999 24.5C9.8999 25.2 9.3999 25.9 8.9999 26.7C8.7999 27.1 8.3999 27.2 7.9999 27.1C7.6999 27 7.3999 26.6 7.3999 26.1Z" fill="#8C8C8C"/>
<path d="M31.1999 27.1C30.7999 27.1 30.2999 27.1 29.8999 27.1C29.9999 26.1 29.9999 25.2 30.0999 24.3C29.8999 24.3 29.5999 24.3 29.3999 24.3C28.7999 24.3 27.9999 24.3 27.3999 24.3L27.1999 27.1C26.7999 27.1 26.3999 27.1 25.8999 27.1C25.9999 24.9 26.1999 22.8 26.2999 20.6C26.6999 20.6 27.0999 20.6 27.5999 20.6C27.4999 21.5 27.3999 23.3 27.3999 23.3H30.0999L30.2999 20.6C30.6999 20.6 31.1999 20.6 31.5999 20.6L31.1999 27.1Z" fill="#8C8C8C"/>
<path d="M39.1999 26.9C39.0999 27.7 39.0999 28.6 38.9999 29.4C38.5999 29.4 38.1999 29.4 37.7999 29.4C37.7999 27.1 38.1999 24.7 37.9999 22.4H38.9999C39.0999 22.4 39.1999 22.6 39.2999 22.8C39.2999 22.8 39.3999 22.7 39.4999 22.7C40.0999 22.3 40.7999 22.2 41.3999 22.5C42.0999 22.8 42.2999 23.4 42.3999 24.1C42.3999 24.8 42.2999 25.5 41.9999 26.1C41.3999 27.2 40.0999 27.4 39.2999 27C39.2999 26.9 39.1999 26.9 39.1999 26.9ZM39.6999 26C40.0999 26.1 40.3999 26 40.5999 25.7C41.0999 25.3 41.2999 24.3 40.9999 23.7C40.7999 23.4 40.4999 23.2 40.1999 23.3C39.7999 23.4 39.5999 23.7 39.4999 24C39.0999 25 39.0999 25.8 39.6999 26Z" fill="#8C8C8C"/>
<path d="M72.8999 19.7999C73.2999 19.7999 73.6999 19.7999 74.0999 19.7999L73.9999 22.6999C74.0999 22.5999 74.1999 22.5999 74.2999 22.4999C74.8999 22.0999 76.1999 22.0999 76.6999 22.9999C77.5999 24.3999 76.6999 26.7999 74.9999 27.1999C74.1999 27.3999 73.5999 27.2999 72.7999 26.8999C72.6999 26.8999 72.5999 26.7999 72.5999 26.7999L72.8999 19.7999ZM75.7999 24.3999C75.7999 24.1999 75.6999 24.0999 75.6999 23.9999C75.5999 23.3999 75.0999 23.1999 74.5999 23.4999C74.1999 23.5999 73.9999 23.9999 73.9999 24.2999C73.8999 24.6999 73.8999 25.1999 73.7999 25.5999C73.7999 25.8999 73.8999 25.9999 74.0999 25.9999C74.7999 26.0999 75.2999 25.7999 75.4999 25.1999C75.6999 24.9999 75.6999 24.6999 75.7999 24.3999Z" fill="#8C8C8C"/>
<path d="M33 28.3C33.3 28.3 33.4999 28.4 33.7999 28.4C34.7999 28.5 35.5 28 35.4 26.8C35.1 26.9 34.8 27.1 34.4 27.2C33.4 27.4 32.7 26.8 32.7 25.8C32.7 25.1 32.7999 24.4 32.7999 23.8C32.7999 23.4 32.7999 22.9 32.7999 22.5H34C34 23.1 33.9 24.1 33.9 24.7C33.9 25 33.8 25.3 33.9 25.7C33.9 26.1 34.1999 26.3 34.5999 26.2C34.9999 26.1 35.1999 25.9 35.2999 25.5C35.3999 25 35.5 24.5 35.5 24.1C35.5 23.6 35.4999 23 35.5999 22.5H36.7999C36.7999 23.3 36.7 24.1 36.7 24.9C36.7 25.8 36.6 26.6 36.5 27.5C36.4 28.8 35.6999 29.5 34.2999 29.5C33.8999 29.5 33.3 29.4 32.9 29.4L33 28.3Z" fill="#8C8C8C"/>
<path d="M91.2999 27.1C90.8999 26.5 90.3999 25.8 90.0999 25.3C90.0999 25.2 89.9999 25.1 89.7999 25C89.7999 25.8 89.6999 27.1 89.6999 27.1H88.4999L88.8999 19.9H89.9999L89.7999 23.8L91.3999 22.4H93.1999L90.7999 24.4C91.3999 25.3 92.7999 27.1 92.7999 27.1H91.2999Z" fill="#8C8C8C"/>
<path d="M80.7999 26.6C80.6999 26.7 80.5999 26.7 80.5999 26.8C80.0999 27.2 79.4999 27.3 78.9999 27.2C78.3999 27.1 77.9999 26.7 77.8999 26.1C77.6999 25.3 77.6999 24.4 78.0999 23.6C78.4999 22.8 79.2999 22.4 80.1999 22.3C80.7999 22.2 81.2999 22.3 81.8999 22.4C82.0999 22.5 82.1999 22.6 82.1999 22.6C82.0999 23.4 82.0999 24.2 81.9999 25V27.1C81.6999 27.1 81.0999 27.1 81.0999 27.1C80.8999 27 80.7999 26.8 80.7999 26.6ZM80.6999 23.4C80.0999 23.2 79.4999 23.4 79.1999 24C78.8999 24.4 78.7999 24.9 78.8999 25.4C78.9999 25.9 79.4999 26.2 79.9999 26C80.2999 25.9 80.4999 25.6 80.5999 25.4C80.7999 25 80.7999 24.5 80.8999 24C80.8999 23.7 80.7999 23.5 80.6999 23.4Z" fill="#8C8C8C"/>
<path d="M96.2999 27.1C96.2999 27 96.1999 26.8 96.1999 26.6C96.0999 26.7 95.9999 26.7 95.8999 26.8C95.3999 27.2 94.8999 27.3 94.2999 27.2C93.6999 27.1 93.2999 26.6 93.0999 26C92.8999 25.2 92.9999 24.5 93.2999 23.8C93.4999 23.3 93.8999 22.8 94.4999 22.6C95.4999 22.2 96.4999 22.3 97.3999 22.6C97.3999 24.1 97.0999 25.6 97.2999 27.2L96.2999 27.1ZM96.0999 23.4C95.4999 23.2 94.8999 23.4 94.5999 23.9C94.2999 24.3 94.1999 24.8 94.2999 25.4C94.3999 26 94.8999 26.2 95.3999 25.9C95.7999 25.7 95.9999 25.4 96.0999 25C96.2999 24.3 96.4999 23.7 96.0999 23.4Z" fill="#8C8C8C"/>
<path d="M45.1999 27.2C43.9999 27.2 43.1999 26.5 43.0999 25.3C42.9999 24.5 43.0999 23.7 43.5999 23.1C44.3999 22 46.2999 21.9 47.0999 23C47.2999 23.3 47.3999 23.6 47.4999 23.9C47.5999 24.4 47.5999 25 47.3999 25.5C47.1999 26.6 46.3999 27.2 45.1999 27.2ZM44.2999 24.9C44.2999 25 44.2999 25.1 44.2999 25.2C44.2999 25.7 44.5999 26.1 45.0999 26.2C45.5999 26.3 45.9999 26.1 46.1999 25.6C46.3999 25.2 46.3999 24.8 46.3999 24.4C46.2999 23.8 45.9999 23.5 45.4999 23.5C44.9999 23.5 44.5999 23.7 44.3999 24.3C44.2999 24.3 44.2999 24.6 44.2999 24.9Z" fill="#8C8C8C"/>
<path d="M61.2 27.0999C61.2 27.0999 61.4 24.0999 61.2 22.3999H62.2C62.3 22.3999 62.3999 22.6999 62.5999 22.7999C62.5999 22.7999 62.6999 22.6999 62.7999 22.6999C63.2999 22.3999 63.8 22.1999 64.3 22.2999C65 22.3999 65.5 22.8999 65.5 23.5999C65.5 24.2999 65.5 24.9999 65.4 25.6999C65.4 26.0999 65.4 27.0999 65.4 27.0999H64.1999L64.3 24.0999C64.3 23.7999 64.2 23.5999 64 23.3999C63.7 23.1999 63.4 23.2999 63.2 23.4999C62.8 23.7999 62.5999 24.2999 62.5999 24.7999C62.5999 24.7999 62.5 26.4999 62.5 27.0999H61.2Z" fill="#8C8C8C"/>
<path d="M85.9999 27.1C85.9999 26.9 85.9999 26.7 85.9999 26.5C85.9999 25.7 86.0999 24.9 86.0999 24.1C86.0999 23.8 85.9999 23.6 85.7999 23.4C85.4999 23.2 85.2999 23.3 84.9999 23.4C84.4999 23.7 84.3999 24.2 84.2999 24.7C84.2999 25.4 84.1999 26.1 84.1999 26.7V27H82.9999C82.9999 27 83.2999 23.9 82.9999 22.3H83.9999C84.0999 22.3 84.2999 22.5 84.2999 22.7C84.2999 22.7 84.3999 22.6 84.4999 22.6C84.8999 22.3 85.3999 22.1 85.9999 22.2C86.6999 22.3 87.1999 22.8 87.1999 23.5C87.1999 24.2 87.1999 25 87.0999 25.7C87.0999 26 87.0999 26.6 86.9999 27L85.9999 27.1Z" fill="#8C8C8C"/>
<path d="M55.4999 26.7999C54.8999 27.2999 53.9999 27.3999 53.2999 27.1999C52.5999 26.9999 52.1999 26.5999 51.9999 25.8999C51.6999 24.8999 51.8999 23.8999 52.5999 23.0999C53.1999 22.3999 53.9999 22.1999 54.8999 22.3999C55.3999 22.4999 55.7999 22.7999 55.8999 23.3999C55.9999 23.9999 55.8999 24.3999 55.3999 24.7999C54.8999 25.1999 54.2999 25.3999 53.5999 25.3999C53.4999 25.3999 53.2999 25.3999 53.1999 25.3999C53.1999 25.8999 53.4999 26.2999 53.9999 26.2999C54.3999 26.2999 54.7999 26.1999 55.1999 25.9999C55.2999 25.8999 55.3999 25.8999 55.4999 25.7999V26.7999ZM53.1999 24.3999C53.6999 24.3999 54.0999 24.3999 54.4999 24.0999C54.6999 23.8999 54.7999 23.6999 54.6999 23.4999C54.5999 23.2999 54.2999 23.1999 54.0999 23.2999C53.5999 23.4999 53.3999 23.8999 53.1999 24.3999Z" fill="#8C8C8C"/>
<path d="M49.9999 23.3C49.9999 24 49.8999 24.9 49.8999 25.6C49.8999 26.2 50.1999 26.4 50.6999 26.2C50.8999 26.1 51.0999 26 51.2999 25.9C51.2999 26.2 51.2999 26.5 51.1999 26.8C51.1999 26.9 51.0999 26.9 50.9999 27C50.3999 27.3 49.8999 27.3 49.2999 27.1C48.8999 26.9 48.5999 26.6 48.5999 26.1C48.5999 25.5 48.6999 24.9 48.6999 24.3C48.6999 24.1 48.6999 23.6 48.7999 23.4H48.0999L48.1999 22.5H48.8999L48.9999 21.4H50.0999V22.5C50.4999 22.5 51.3999 22.5 51.3999 22.5V23.4L49.9999 23.3Z" fill="#8C8C8C"/>
<path d="M60.0999 23.7C59.9999 23.6 59.8999 23.6 59.7999 23.6C58.7999 23.2 58 23.7 57.9 24.7V24.8C57.8 26 58.6 26.5 59.7 26C59.9 25.9 60 25.8 60.2 25.7V26.8C59.5 27.1 58.7 27.3 58 27C57.1 26.7 56.7 26 56.7 25.1C56.7 24.6 56.7 24.1 56.9 23.6C57.5 22.1 59.4 21.9 60.4 22.5L60.0999 23.7Z" fill="#8C8C8C"/>
<path d="M15.6999 18.4C14.8999 18.4 14.2999 17.8 14.2999 17C14.2999 16.2 14.8999 15.6 15.6999 15.6C16.4999 15.6 17.0999 16.3 17.0999 17C17.1999 17.7 16.5999 18.4 15.6999 18.4Z" fill="#8C8C8C"/>
<path d="M66.8999 22.4H68.0999L67.7999 27.1H66.5999L66.8999 22.4Z" fill="#8C8C8C"/>
<path d="M57.3999 20.4H58.4999L59.1999 21.1L59.9999 20.4H61.0999L59.8999 21.9H58.5999L57.3999 20.4Z" fill="#8C8C8C"/>
<path d="M67.6999 20.4H69.3999C68.8999 20.9 67.7999 21.9 67.7999 21.9H66.7999L67.6999 20.4Z" fill="#8C8C8C"/>
<path d="M22.7999 28.6999H12.6999C12.1999 28.6999 11.7999 28.2999 11.7999 27.7999C11.7999 27.2999 12.1999 26.8999 12.6999 26.8999H22.7999C23.2999 26.8999 23.6999 27.2999 23.6999 27.7999C23.6999 28.2999 23.2999 28.6999 22.7999 28.6999Z" fill="#BABABA"/>
<path d="M15.0999 12.7L23.3999 19.1C23.7999 19.4 24.2999 19.3 24.5999 19C24.8999 18.6 24.8999 18.1 24.4999 17.8L15.1999 10.7L2.89995 18.7C2.49995 19 2.39995 19.5 2.69995 19.9C2.99995 20.3 3.49995 20.4 3.79995 20.1L15.0999 12.7Z" fill="#BABABA"/>
</svg>
