<svg width="100" height="40" viewBox="0 0 100 40" fill="none" xmlns="http://www.w3.org/2000/svg">
<path d="M75.45 28.53V28.34C75.45 28.34 75.63 28.34 75.75 28.32C76.61 28.15 77.04 27.69 77.12 26.82L77.13 13.67C77.13 12.6 76.83 12.02 75.76 11.84C75.66 11.83 75.46 11.83 75.46 11.83V11.64H85.8C87.66 11.65 89.52 11.73 91.38 11.85C92.6 11.92 93.78 12.24 94.84 12.89C97.01 14.23 97.02 17.07 94.86 18.42C93.92 19.01 92.88 19.29 91.8 19.49C91.6 19.53 91.4 19.57 91.32 19.58C92.22 19.76 93.23 19.91 94.22 20.17C94.76 20.31 95.29 20.56 95.77 20.85C97.78 22.06 98.11 24.68 96.47 26.37C95.52 27.35 94.3 27.86 93 28.07C91.43 28.32 89.85 28.5 88.27 28.53H75.45ZM81.77 20.83C81.77 22.39 81.75 23.88 81.79 25.38C81.79 25.61 82.03 26.05 82.22 26.16C82.62 26.41 83.01 26.56 83.46 26.59C84.91 26.67 86.36 26.67 87.81 26.65C88.87 26.63 89.92 26.51 90.89 26.03C91.82 25.58 92.36 24.86 92.39 23.81C92.42 22.75 91.93 21.99 91.01 21.52C90.58 21.3 90.11 21.12 89.64 21.02C87.05 20.44 84.43 20.68 81.77 20.83ZM81.79 18.69C83.7 18.69 85.58 18.75 87.45 18.67C88.35 18.63 89.25 18.4 90.12 18.13C90.97 17.87 91.39 17.2 91.43 16.3C91.47 15.41 91.15 14.69 90.34 14.25C90 14.07 89.62 13.91 89.25 13.82C86.78 13.29 84.3 13.56 81.79 13.73C81.79 15.41 81.79 17.04 81.79 18.69Z" fill="#8C8C8C"/>
<path d="M65.3799 28.58C62.0899 25.98 58.4699 23.06 55.1799 20.45C55.0399 20.34 54.8399 20.18 54.6699 20.06L54.6799 26.8C54.6899 27.66 55.1699 28.16 56.0199 28.32C56.1499 28.34 56.2599 28.35 56.3899 28.35V28.53H48.3299V28.39C48.4399 28.38 48.5299 28.35 48.6299 28.33C49.5799 28.14 50.0099 27.64 50.0299 26.67C50.0399 25.82 50.0299 24.97 50.0299 24.12C50.0299 20.75 50.0099 17.37 50.0399 14C50.0499 12.9 49.6599 11.95 48.3199 11.85V11.66H56.3799V11.85C55.1299 11.91 54.6899 12.64 54.6799 13.46L54.6699 19L65.1099 13.04C65.2999 12.91 65.4699 12.81 65.5599 12.62C65.6299 12.49 65.6299 12.33 65.5799 12.19C65.5199 12.02 65.4399 11.88 65.2499 11.85C65.1699 11.84 64.9199 11.84 64.9199 11.84V11.65H72.41V11.84C72.41 11.84 72.1199 11.85 72.0599 11.86C70.8299 12.08 69.9099 12.66 68.8399 13.26C65.8399 14.94 62.8299 16.71 59.8399 18.4C59.7299 18.46 59.6299 18.53 59.4799 18.62C59.7299 18.82 59.9499 18.99 60.1699 19.16C63.6499 21.83 67.1299 24.49 70.6199 27.16C71.2699 27.66 72.0499 28.18 72.8899 28.34V28.58H65.3799Z" fill="#8C8C8C"/>
<path d="M36.46 3.10999H2.5V20H36.46V3.10999Z" fill="#BABABA"/>
<path d="M36.46 20H2.5V36.89H36.46V20Z" fill="#8C8C8C"/>
<path d="M29.06 20H9.69995V21.71H29.06V20Z" fill="white"/>
</svg>
