<svg width="100" height="40" viewBox="0 0 100 40" fill="none" xmlns="http://www.w3.org/2000/svg">
<path d="M29.2 38.2999H2.5V1.69995H29.2V38.2999Z" fill="#A1A1A1"/>
<path d="M54.6 1.69995H33.1V38.2H54.6V1.69995Z" fill="#C5C5C5"/>
<path d="M69.5 1.69995H54.3V38.2H69.5V1.69995Z" fill="#979797"/>
<path d="M97.5 1.69995H73.2V38.2H97.5V1.69995Z" fill="#AAAAAA"/>
<path d="M73.2 1.69995H69.5V38.2H73.2V1.69995Z" fill="#979797"/>
<path d="M33.0999 1.69995H29.2V38.2H33.0999V1.69995Z" fill="#666666"/>
<path d="M38.7118 19.1993H40.224C41.2321 19.1993 41.837 18.9976 42.2402 18.6952C42.5426 18.3928 42.7442 17.8887 42.7442 17.1831C42.7442 16.7798 42.6434 16.175 42.2402 15.7717C41.837 15.3685 41.2321 15.2677 40.1232 15.2677H38.7118V19.1993ZM38.7118 25.7519H40.6272C42.7442 25.7519 43.5507 25.147 43.5507 23.5341C43.5507 22.7276 43.3491 22.2236 42.9459 21.9211C42.4418 21.5179 41.837 21.3163 40.6272 21.3163H38.7118V25.7519ZM35.1835 28.373V15.1669H33.6713V12.6466H40.8289C43.0467 12.6466 44.3572 12.949 45.2645 13.7555C46.071 14.4612 46.4742 15.4693 46.4742 16.5782C46.4742 17.9895 45.7685 19.1993 44.6596 19.8041H44.5588H44.6596C46.4742 20.3082 47.3815 21.6187 47.3815 23.6349C47.3815 25.5503 46.6758 26.8608 45.1637 27.5665C44.2564 28.0705 42.9459 28.2722 41.0305 28.2722H35.1835V28.373ZM69.8621 28.373V21.0138C69.8621 20.3082 69.7613 19.7033 69.4589 19.3001C69.1565 18.8968 68.6524 18.6952 68.0476 18.6952C67.3419 18.6952 66.8378 18.9976 66.4346 19.4009C66.0314 19.9049 65.9305 20.6106 65.9305 21.4171V28.373H62.503V18.796H61.0917V16.3766H64.62L65.2249 17.7879C66.1322 16.7798 67.4427 16.175 68.9548 16.175C70.3662 16.175 71.5759 16.5782 72.2816 17.3847C72.9872 18.1912 73.2897 19.1993 73.2897 20.6106V28.373H69.8621ZM85.2861 28.5746C83.9755 28.5746 83.1691 28.0705 82.4634 26.76L80.2456 23.03H79.2375V28.373H75.8099V13.8563H74.3986V11.4369H79.2375V20.5098H80.4472L82.8666 16.2758H86.2942L83.0682 21.7195L85.3869 25.5503C85.6893 26.0543 85.8909 26.1551 86.2942 26.1551C86.5966 26.1551 86.9998 26.0543 87.2015 25.8527L87.3023 25.7519L87.2015 27.8689C86.7982 28.2722 86.0925 28.5746 85.2861 28.5746ZM31.1511 28.5746C30.143 28.5746 29.4373 28.2722 29.0341 27.6673C28.7317 27.2641 28.53 26.5584 28.53 25.7519V21.1146C28.53 20.3082 28.53 19.9049 28.1268 19.4009C27.8244 18.9976 27.3203 18.796 26.7155 18.796C26.1106 18.796 25.5057 19.0984 25.2033 19.5017C24.9009 19.9049 24.6993 20.5098 24.6993 21.5179V28.373H21.2717V21.0138C21.2717 20.2074 21.2717 19.8041 20.8685 19.3001C20.566 18.8968 20.062 18.6952 19.4571 18.6952C18.8523 18.6952 18.2474 18.9976 17.945 19.4009C17.6425 19.8041 17.4409 20.409 17.4409 21.4171V28.373H14.0134V18.796H12.6021V16.3766H16.1304L16.7353 17.7879V17.6871C17.5417 16.679 18.8523 16.0741 20.4652 16.0741C22.0782 16.0741 23.2879 16.5782 23.9936 17.5863C24.4976 16.9814 25.6065 16.0741 27.6227 16.0741C29.2357 16.0741 30.5462 16.5782 31.1511 17.5863C31.6551 18.292 31.8568 19.1993 31.8568 20.5098V25.5503C31.8568 26.1551 32.1592 26.256 32.3608 26.256C32.6632 26.256 33.0665 26.0543 33.2681 25.9535L33.3689 25.8527L33.2681 27.8689C32.8649 28.1713 32.0584 28.5746 31.1511 28.5746ZM54.1358 22.4252C52.8252 22.4252 52.1196 23.1308 52.1196 24.3406C52.1196 25.5503 52.8252 26.256 53.9342 26.256C54.4382 26.256 54.9423 26.0543 55.3455 25.7519C55.6479 25.4495 55.8495 24.9454 55.8495 24.3406V22.7276C55.4463 22.6268 54.7406 22.4252 54.1358 22.4252ZM53.0269 28.5746C50.4058 28.5746 48.692 27.0624 48.692 24.5422C48.692 21.9211 50.5066 20.409 53.4301 20.409C54.1358 20.409 55.0431 20.5098 55.7487 20.7114V20.5098C55.7487 19.7033 55.6479 19.1993 55.3455 18.8968C54.9423 18.4936 54.3374 18.292 53.4301 18.292C52.2204 18.292 51.0107 18.5944 49.9018 19.1993L49.8009 19.3001V16.8806C50.9099 16.3766 52.422 16.0741 53.9342 16.0741C55.8495 16.0741 57.2609 16.4774 58.1682 17.3847C58.8738 18.0903 59.2771 19.0984 59.2771 20.5098V25.6511C59.2771 26.1551 59.3779 26.3568 59.7811 26.3568C60.0836 26.3568 60.4868 26.1551 60.6884 26.0543L60.7892 25.9535L60.6884 27.9697C60.1844 28.373 59.2771 28.5746 58.4706 28.5746C57.4625 28.5746 56.656 28.1713 56.3536 27.4657V27.3649C55.4463 28.1713 54.3374 28.5746 53.0269 28.5746Z" fill="white"/>
</svg>
