<svg width="100" height="40" viewBox="0 0 100 40" fill="none" xmlns="http://www.w3.org/2000/svg">
<path d="M82.2 15.9L80.5 18.4L78.7 15.9V19.2H79.2V17.5L80.4 19.3L81.6 17.5V19.2H82.1V15.9H82.2ZM84.8 16C83.9 16 83.1 16.7 83.1 17.6C83.1 18.5 83.8 19.2 84.8 19.2C85.7 19.2 86.5 18.5 86.5 17.6C86.5 16.7 85.7 16 84.8 16ZM84.8 18.8C84.2 18.8 83.7 18.3 83.7 17.7C83.7 17.1 84.2 16.6 84.8 16.6C85.4 16.6 85.9 17.1 85.9 17.7C85.9 18.3 85.4 18.8 84.8 18.8ZM87.4 15.9V19.2H87.9V17L90.5 19.3V16H90V18.2L87.4 15.9ZM93.8 16.1H91.5V19.2H93.8V18.7H92V17.8H93.7V17.3H92V16.4H93.8V16.1ZM97.5 16.1H96.9L95.9 17.5L94.9 16.1H94.3L95.6 18V19.2H96.1V18L97.5 16.1ZM80.3 20.7H78.7V23.8H80.4C81 23.8 81.4 23.4 81.4 22.9C81.4 22.5 81.2 22.3 80.9 22.1C81.1 22 81.3 21.7 81.3 21.4C81.2 21.1 80.9 20.7 80.3 20.7ZM79.2 22V21.2H80.2C80.5 21.2 80.7 21.4 80.7 21.6C80.7 21.8 80.5 22 80.2 22H79.2ZM79.2 23.4V22.5H80.3C80.6 22.5 80.8 22.7 80.8 23C80.8 23.3 80.6 23.5 80.3 23.5H79.2V23.4ZM83.6 20.6L81.8 23.9H82.4L82.8 23.2H84.5L84.9 23.9H85.5L83.6 20.6ZM83 22.7L83.6 21.6L84.2 22.7H83ZM86.2 20.6V23.9H86.7V21.8L89.3 24.1V20.8H88.8V23L86.2 20.6ZM93.2 20.7H92.5L90.9 22.1V20.7H90.4V23.8H90.9V22.8L91.4 22.3L92.6 23.8H93.2L91.8 22L93.2 20.7ZM29.2 15.8L24.8 21.7L20.4 15.8V23.9H22V20.3L24.8 24.2L27.6 20.3V23.9H29.2V15.8ZM34.6 15.9C32.3 15.9 30.5 17.7 30.5 20C30.5 22.3 32.3 24.1 34.6 24.1C36.9 24.1 38.7 22.3 38.7 20C38.7 17.7 36.9 15.9 34.6 15.9ZM34.6 22.5C33.2 22.5 32.1 21.4 32.1 20C32.1 18.6 33.2 17.5 34.6 17.5C36 17.5 37.1 18.6 37.1 20C37 21.4 35.9 22.5 34.6 22.5ZM39.7 15.8V23.9H41.3V19.1L47.4 24.2V16.1H45.8V20.9L39.7 15.8ZM55 16.1H49V23.9H55V22.5H50.6V20.7H54.8V19.3H50.6V17.6H55V16.1ZM63.7 16.1H55.9V17.5H58.2V23.8H59.8V17.5H62.8L63.7 16.1ZM65.6 15.8L61 23.9H62.8L63.6 22.4H67.6L68.4 23.9H70.2L65.6 15.8ZM64.3 21.1L65.6 18.8L66.9 21.1H64.3ZM73.9 12.9H74.4V26.9H73.9V12.9Z" fill="#8C8C8C"/>
<path d="M4 16.6L7.5 20L4 23.3V16.6ZM14.8 12.9L8.6 18.9L2.5 13V27L8.6 21.1L9.8 20L13.3 16.6V23.4L10.9 21.1L9.8 22.2L14.9 27.1L14.8 12.9Z" fill="#8C8C8C"/>
</svg>
