<svg width="100" height="40" viewBox="0 0 100 40" fill="none" xmlns="http://www.w3.org/2000/svg">
<path fill-rule="evenodd" clip-rule="evenodd" d="M17.9 20.2001C17.9 16.0001 14.6 13.2001 10.2 13.2001C5.70002 13.2001 2.40002 16.4001 2.40002 20.6001C2.40002 24.8001 5.40002 27.5001 9.90002 27.5001C14.5 27.5001 17.9 24.5001 17.9 20.2001ZM14.7 20.4001C14.7 23.4001 12.7 24.9001 10.2 24.9001C7.90002 24.9001 5.70002 23.4001 5.70002 20.4001C5.70002 17.5001 7.80002 15.9001 10.2 15.9001C12.7 15.9001 14.7 17.5001 14.7 20.4001Z" fill="#8C8C8C"/>
<path fill-rule="evenodd" clip-rule="evenodd" d="M30.4 22.1C30.4 18.3 28 17.5 26.3 17.5C24.2 17.5 23.3 18.7 23.3 18.7V12.6H20.3V26.5C20.3 26.5 21.8 27.6 24.9 27.6C27.9 27.5 30.4 25.5 30.4 22.1ZM27.3 22.5C27.3 24.3 26.2 25.3 24.9 25.3C23.9 25.3 23.3 24.9 23.3 24.9V20.9C23.3 20.9 24.0001 20 25.2001 20C26.2001 19.9 27.3 20.7 27.3 22.5Z" fill="#8C8C8C"/>
<path fill-rule="evenodd" clip-rule="evenodd" d="M41.6 22.9C41.6 20 40.7 17.4 36.8 17.4C33.6 17.4 31.8 19.5 31.8 22.3C31.8 25.5 33.5 27.5 37 27.5C39.7 27.5 41.4001 26 41.4001 26L40.2001 24.2C40.2001 24.2 39.0001 25.3 37.2001 25.3C34.8001 25.3 34.6 23 34.6 23H41.6V22.9ZM38.5 21H34.7001C34.7001 21 34.8001 19.4 36.7001 19.4C38.6001 19.4 38.5 21 38.5 21Z" fill="#8C8C8C"/>
<path d="M50.7 17.8C50.7 17.8 50.1 17.4 49.1 17.4C47 17.4 46.6 19.3 46.6 19.3V17.6H43.6V27.2H46.6V22C46.6 20.2 47.7 20 48.5 20C49.3 20 49.9 20.4 49.9 20.4" fill="#8C8C8C"/>
<path fill-rule="evenodd" clip-rule="evenodd" d="M62.2 22.1C62.2 18.3 59.8 17.5 58.1 17.5C56 17.5 55.1 18.7 55.1 18.7V12.6H52.1V26.5C52.1 26.5 53.6 27.6 56.7 27.6C59.7 27.5 62.2 25.5 62.2 22.1ZM59.1 22.5C59.1 24.3 58 25.3 56.7 25.3C55.7 25.3 55 24.9 55 24.9V20.9C55 20.9 55.7 20 56.9 20C58 19.9 59.1 20.7 59.1 22.5Z" fill="#8C8C8C"/>
<path fill-rule="evenodd" clip-rule="evenodd" d="M72.3 27.2001V20.6C72.3 17.7 69.5 17.3 68.1 17.3C65.3 17.3 63.7 18.6 63.7 18.6L64.6 20.7001C64.6 20.7001 65.9 19.5 67.5 19.5C69.5 19.5 69.5 20.7 69.5 21.3C66.9 21.3 63.6 21.7 63.6 24.5C63.6 26.4 65.1 27.3 66.9 27.3C68.7 27.3 69.5 25.9 69.5 25.5V27H72.3V27.2001ZM69.5 24C69.5 25.1 68.4 25.5 67.7 25.5C67.2 25.5 66.4 25.4 66.4 24.3C66.4 23 68.4 23 69.5 23" fill="#8C8C8C"/>
<path d="M84.6 27.2001V20.4C84.6 18.6 83.3 17.3 81.1 17.3C78.5 17.3 77.9 19 77.9 19V17.6H74.9V27.2001H77.9V21.5C77.9 20.3 79 19.8 79.8 19.8C81.5 19.8 81.6 20.9 81.6 22V27.3" fill="#8C8C8C"/>
<path d="M97.5 27.2L93.6 21.9L97.4 17.6H93.9L90.3 21.8V12.4H87.3V27.2H90.3V22L93.9 27.2" fill="#8C8C8C"/>
</svg>
