<svg width="100" height="40" viewBox="0 0 100 40" fill="none" xmlns="http://www.w3.org/2000/svg">
<path fill-rule="evenodd" clip-rule="evenodd" d="M2.5 7.69995H27.5V32.7H2.5V7.69995Z" fill="#8B8B8B"/>
<path fill-rule="evenodd" clip-rule="evenodd" d="M3.19995 8.5H26.7V32H3.19995V8.5Z" fill="#E1E1E1"/>
<path fill-rule="evenodd" clip-rule="evenodd" d="M4.5 27.1999L7.6 30.2999L14.8 22.9999L22.2 30.3999L25.3 27.2999L17.9 19.8999L19.3 18.4999V15.5999L20.2 14.7999V17.0999L21.3 17.9999L24.7 14.5999L25.8 15.3999C26.4 12.9999 22.7 7.59991 19.6 10.5999L16 14.1999L16.7 15.0999L15 17.0999L13.2 15.3999L14.1 14.5999L10.1 10.7999C7.1 8.29991 4.1 12.0999 4 15.6999L5.1 14.7999L8.4 18.3999L9.6 17.3999V15.1999L10.3 15.7999V18.6999L11.7 20.0999L4.5 27.1999Z" fill="#8B8B8B"/>
<path fill-rule="evenodd" clip-rule="evenodd" d="M33.8 10.7V12.9H34.7C36 12.7 35.6 10.8 34.7 10.7H33.8ZM31.2 8.59997V18.4H33.8V15.2L36.1 18.4H39.2L36.4 14.5C39.6 12.9 38.4 8.69997 35 8.59997H31.2ZM43.4 13.5C44.3 13.5 45 14.2 45 15C45 15.8 44.3 16.5 43.4 16.5C42.5 16.5 41.8 15.8 41.8 15C41.9 14.1 42.6 13.5 43.4 13.5ZM42.9 11.3C43.6 11.3 44.3 11.5 44.9 11.9V11.5H47.5V18.3H44.9V17.9C44.3 18.3 43.7 18.5 42.9 18.5C41 18.5 39.4 16.9 39.4 14.9C39.4 13 41 11.3 42.9 11.3ZM48.8 11.6H51.6V18.4H48.8V11.6ZM50.2 7.69997C51 7.69997 51.6 8.39997 51.6 9.19997C51.6 9.99997 51 10.7 50.2 10.7C49.4 10.7 48.7 9.99997 48.7 9.19997C48.7 8.29997 49.4 7.69997 50.2 7.69997ZM71.1 11.6H73.9V18.4H71.1V11.6ZM72.5 7.69997C73.3 7.69997 74 8.39997 74 9.19997C74 9.99997 73.4 10.7 72.5 10.7C71.7 10.7 71.1 9.99997 71.1 9.19997C71 8.29997 71.7 7.69997 72.5 7.69997ZM52.1 11.6V13.8H53V18.4H55.7V13.8H58.2V18.4H61V13.7H62.7V11.6H60.9V10.1C60.9 9.49997 62.2 9.29997 62.6 9.79997V7.49997C60 6.69997 58 8.19997 58 10.4V11.6H55.7V10.1C55.7 9.49997 56.8 9.29997 57.5 9.79997V7.49997C55.3 6.89997 53 7.89997 53 10.3V11.5L52.1 11.6ZM66.6 18.6C69 18.6 69.8 17.6 70.3 16.2H67.9C66.8 17.6 65.2 16.6 65.3 15.4H70.4C70.4 12.6 68.9 11.3 66.6 11.3C64.3 11.3 62.8 13 62.8 15C62.8 17 64.5 18.6 66.6 18.6ZM65.7 13.8C65.7 13 67.5 13 67.7 13.8H65.7ZM85.3 18.6C87.7 18.6 88.5 17.6 89.1 16.2H86.7C85.6 17.6 84 16.6 84.1 15.4H89.2C89.2 12.6 87.7 11.3 85.4 11.3C83.1 11.3 81.6 13 81.6 15C81.5 17 83.2 18.6 85.3 18.6ZM84.4 13.8C84.4 13 86.2 13 86.4 13.8H84.4ZM80.8 11.7L80 13.4C79 13.1 78 13.1 78 13.4C78 13.6 77.9 13.9 79.5 14.1C81.9 14.5 81.7 18.9 77.7 18.6C76.6 18.5 75.7 18.2 75 17.8L75.9 16C77.1 16.6 78.4 17 78.4 16.4C78.5 15.6 77.1 15.9 76.2 15.3C74.7 14.4 75.5 11.4 78.1 11.4C78.9 11.3 79.8 11.4 80.8 11.7ZM90.2 11.6V18.4H92.8V14.2C92.9 13.2 94.9 13 94.9 14.2V18.4H97.5V14.1C97.4 11.7 94.9 10.6 92.7 12.1V11.6H90.2ZM32.7 22.5L31 32.7H35.9C39.2 32.7 40.5 28.6 38.2 27.2C40.2 25.3 39.2 22.6 37 22.5H32.7ZM34.7 28.6L34.4 30.3H35.5C36.8 30.4 36.6 28.6 35.9 28.6H34.7ZM35.3 25L35 26.3H35.3C36.3 26.4 36.9 24.9 35.7 24.9H35.3V25ZM39.3 32.7H42.2L43.1 30.9H46.4L46.9 32.7H49.6L47.2 22.6H44.4L39.3 32.7ZM44.1 28.8H45.9L45.3 26.1L44.1 28.8ZM50.6 32.7H53.3L54 26.4L57.9 32.7H60.8L62 22.5H59.3L58.5 28.8L54.6 22.4H51.8L50.6 32.7ZM64 22.5L62.1 32.7H65L65.8 28.9L68.4 32.7H72.2L68.5 27.4L73.2 22.6H69.5L66.3 26.2L66.8 22.6L64 22.5Z" fill="#8B8B8B"/>
</svg>
