<svg width="100" height="40" viewBox="0 0 100 40" fill="none" xmlns="http://www.w3.org/2000/svg">
<path d="M23.9 14.9V22.6C23.9 24.3 22.4 25.6 20.4 25.6C18.4 25.6 16.9 24.3 16.9 22.6V16.7C16.9 15.7 17.7 14.9 18.7 14.9H18.8V22.6C18.8 23.5 19.6 24.1 20.4 24.1C21.2 24.1 22 23.6 22 22.6V16.6C22.1 15.7 22.8 14.9 23.9 14.9Z" fill="#8A8A8A"/>
<path d="M27.7 17.7001C30.3 17.7001 30.7 19.2001 30.7 20.1001V25.6001H30.6C29.6 25.6001 28.8 24.8001 28.8 23.8001V20.1001C28.8 19.6001 28.6 19.0001 27.6 19.0001C27.1 19.0001 26.8 19.1001 26.5 19.2001C26.5 19.3001 26.5 25.6001 26.5 25.6001H24.6V18.3001C25.4 17.9001 26.7 17.7001 27.7 17.7001Z" fill="#8A8A8A"/>
<path d="M32.5 14.9C33.1 14.9 33.5 15.3 33.5 15.8C33.5 16.3 33.1 16.7 32.5 16.7C31.9 16.7 31.5 16.3 31.5 15.8C31.5 15.4 31.9 14.9 32.5 14.9ZM33.4 17.7V23.8C33.4 24.8 32.6 25.6 31.6 25.6H31.5V17.7H33.4Z" fill="#8A8A8A"/>
<path d="M38.8 14.8C39.7 14.8 40.5 15 41.2 15.4V17.3C40.8 16.8 40.2 16.4 39.2 16.4C37.3 16.4 36.1 18.3 36.1 20.2C36.1 22 37.3 24.1 39.2 24.1C40 24.1 40.8 23.9 41.2 23.3V25C40.7 25.4 39.8 25.6 38.8 25.6C35.8 25.6 34.2 22.8 34.2 20.1C34.1 17.5 35.7 14.8 38.8 14.8Z" fill="#8A8A8A"/>
<path d="M44.5 17.7001C44.8 17.7001 45.2 17.7001 45.6 17.8001V19.3001C45 18.8001 44.1001 19.0001 43.7001 19.2001V23.8001C43.7001 24.8001 42.9001 25.6001 41.9001 25.6001H41.8V18.3001C42.5 17.9001 43.3 17.7001 44.5 17.7001Z" fill="#8A8A8A"/>
<path d="M52.1 21.7001L47.4 22.3001C47.6 23.6001 48.2 24.3001 49.4 24.3001C50.7 24.3001 51.4 23.9001 51.8 23.5001V25.1001C51.3 25.4001 50.4 25.7001 49.2 25.7001C46.9 25.7001 45.5 24.2001 45.5 21.7001C45.5 19.3001 46.8 17.7001 48.8 17.7001C50.9 17.7001 52 19.1001 52 21.4001V21.7001H52.1ZM50.4 20.6001C50.3 19.0001 49.4 18.9001 48.9 18.9001H48.8C47.7 18.9001 47.3 19.7001 47.3 21.1001L50.4 20.6001Z" fill="#8A8A8A"/>
<path d="M58.8001 14.9V25.4C58.4001 25.5 56.9001 25.6 56.3001 25.6H56.2001C53.9001 25.6 52.7001 24.3 52.7001 21.9C52.7001 19.5 54.0001 18 56.0001 18C56.4001 18 56.7001 18 57.0001 18.1V16.7C57.0001 15.7 57.7001 14.9 58.8001 14.9ZM57.0001 19.2C56.8001 19.1 56.6001 19.1 56.4001 19.1C54.9001 19.1 54.5001 20.6 54.5001 21.8C54.5001 23.5 55.1001 24.4 56.2001 24.4C56.4001 24.4 56.8001 24.4 57.0001 24.3V19.2Z" fill="#8A8A8A"/>
<path d="M60.6 14.9C61.2 14.9 61.6 15.3 61.6 15.8C61.6 16.3 61.2 16.7 60.6 16.7C60 16.7 59.6 16.3 59.6 15.8C59.6 15.4 60.1 14.9 60.6 14.9ZM61.5 17.7V23.8C61.5 24.8 60.7 25.6 59.7 25.6H59.6V17.7H61.5Z" fill="#8A8A8A"/>
<path d="M64.8001 14.9V17.6H66.0001V19.1H64.8001V23.3C64.8001 23.8 65.0001 24 65.5001 24C65.6001 24 65.9001 24 66.0001 23.9V25.5C65.9001 25.5 65.6001 25.7 65.1001 25.7C63.7001 25.7 63.0001 25 63.0001 23.8V19.2H62.2001V17.7H63.0001V16.7C63.0001 15.7 63.8001 14.9 64.8001 14.9Z" fill="#8A8A8A"/>
<path d="M74.7001 19.8C75.7001 20 77.1001 20.9 77.1001 22.5C77.1001 24.6 75.4001 25.5 72.9001 25.5C70.5001 25.5 69.7001 25.5 69.7001 25.5V15.4C70.4001 15.1 71.5001 14.8 72.8001 14.8C75.4001 14.8 76.7001 15.9 76.7001 17.5C76.7001 18.9 75.6001 19.6 74.7001 19.8ZM74.8001 17.6C74.8001 16.4 74.1001 15.9 72.8001 15.9C72.3001 15.9 72.0001 16 71.6001 16.1V19.5H72.2001C74.1001 19.5 74.8001 18.9 74.8001 17.6ZM72.2001 20.4H71.6001V24.3C72.0001 24.3 72.3001 24.3 72.9001 24.3C74.2001 24.3 75.1001 23.8 75.1001 22.4C75.1001 21 74.2001 20.3 72.2001 20.4Z" fill="#8A8A8A"/>
<path d="M81.7 20.6V20C81.7 19 81.1 18.7 80.2 18.7C79.5 18.7 78.7 19 77.9 19.4V18.1C78.4 17.9 79.3 17.5 80.5 17.5C82.1 17.5 83.4 18.3 83.4 20.3V25.3C82.9 25.4 81.7 25.5 80.9 25.5H80.5C78.4 25.5 77.3 24.6 77.3 23.1C77.4 21.3 79.4 20.8 81.7 20.6ZM81.7 21.4C80.1 21.6 79.1 21.9 79.1 23.2C79.1 24.2 79.7 24.6 80.7 24.6C81.1 24.6 81.6 24.6 81.7 24.5V21.4Z" fill="#8A8A8A"/>
<path d="M87.2001 17.7001C89.8001 17.7001 90.3001 19.2001 90.3001 20.1001V25.6001H90.2001C89.2001 25.6001 88.4001 24.8001 88.4001 23.8001V20.0001C88.4001 19.5001 88.2001 18.9001 87.2001 18.9001C86.7001 18.9001 86.4001 19.0001 86.1001 19.1001C86.1001 19.2001 86.1001 25.6001 86.1001 25.6001H84.2001V18.3001C85.0001 17.9001 86.3001 17.7001 87.2001 17.7001Z" fill="#8A8A8A"/>
<path d="M93.0001 23.7C93.0001 24.7 92.2001 25.5 91.2001 25.5V16.7C91.2001 15.7 92.0001 14.9 93.0001 14.9V21.3L95.3001 17.8H97.1001L94.7001 21.3L97.5001 25.5H95.5001L93.0001 21.6V23.7Z" fill="#8A8A8A"/>
<path d="M8.7 26.2C12.1242 26.2 14.9 23.4242 14.9 20C14.9 16.5759 12.1242 13.8 8.7 13.8C5.27583 13.8 2.5 16.5759 2.5 20C2.5 23.4242 5.27583 26.2 8.7 26.2Z" fill="#B9B9B9"/>
<path d="M8.10002 16.7001C8.20002 16.8001 8.90002 17.2001 9.10002 17.3001C9.10002 17.3001 9.10002 17.3001 9.20002 17.3001C9.30002 17.2001 9.30002 17.1001 9.10002 17.0001C8.90002 16.9001 8.30002 16.5001 8.10002 16.4001L7.90002 16.2001C8.00002 16.5001 8.10002 16.7001 8.10002 16.7001Z" fill="#676767"/>
<path d="M14.2 15.9C14.3 16 14.3 16.3 14.3 16.3C14.2 16.6 13.8 17 13.1 17.6C13.1 17.6 12 18.7 11.1 19.4C10.3 20.1 7.59995 22.4 7.09995 22.8C6.59995 23.2 4.59995 24.7 4.39995 24.8C4.29995 24.9 3.89995 24.9 3.69995 24.9C3.79995 25 3.89995 25.1 3.99995 25.2C4.19995 25.4 4.59995 25.1 4.69995 25C4.79995 24.9 6.89995 23.4 7.39995 23C7.89995 22.6 10.6 20.3 11.4 19.6C12.2 18.9 13.4 17.8 13.4 17.8C14.1 17.2 14.5 16.8 14.5 16.5C14.5 16.6 14.6 16.2 14.2 15.9Z" fill="#676767"/>
<path d="M8.29996 18.3C8.29996 18.3 8.99996 17.4 9.09996 17.3C9.09996 17.1 9.19995 17 8.99996 16.9C8.79996 16.8 8.19995 16.4 7.99996 16.3C7.89996 16.2 7.89996 15.8 8.29996 15.8C8.69996 15.7 12 15.5 13.2 15.6C14.5 15.7 14.4 16.2 14.3 16.4C14.2 16.7 13.8 17.1 13.1 17.7C13.1 17.7 12 18.8 11.1 19.5C10.3 20.2 7.59996 22.5 7.09996 22.9C6.59996 23.3 4.59996 24.8 4.39996 24.9C4.29996 25 3.89996 25.3 3.69996 25.1C3.49996 24.9 3.69996 24.7 3.79996 24.5C3.89996 24.4 7.99996 18.6 8.29996 18.3Z" fill="white"/>
</svg>
